<mxfile host="app.diagrams.net" modified="2020-10-07T13:13:20.434Z" agent="5.0 (Windows)" etag="qx4uVs_QsDOF0lDzMZUs" version="13.7.7" type="github">
  <diagram id="Nvaw2gHJHcSBUKbXuP-K" name="Page-1">
    <mxGraphModel dx="910" dy="487" grid="1" gridSize="10" guides="1" tooltips="1" connect="1" arrows="1" fold="1" page="1" pageScale="1" pageWidth="1169" pageHeight="827" math="0" shadow="0">
      <root>
        <mxCell id="0" />
        <mxCell id="1" parent="0" />
        <mxCell id="lZmL2fSjqCGuLQ8A0n4v-1" value="Library User requirement assessment" style="swimlane;html=1;childLayout=stackLayout;resizeParent=1;resizeParentMax=0;horizontal=1;startSize=20;horizontalStack=0;" vertex="1" parent="1">
          <mxGeometry x="10" y="10" width="1150" height="650" as="geometry" />
        </mxCell>
        <mxCell id="lZmL2fSjqCGuLQ8A0n4v-2" value="Librarian" style="swimlane;html=1;startSize=20;horizontal=0;" vertex="1" parent="lZmL2fSjqCGuLQ8A0n4v-1">
          <mxGeometry y="20" width="1150" height="310" as="geometry" />
        </mxCell>
        <mxCell id="lZmL2fSjqCGuLQ8A0n4v-5" value="Start" style="rounded=1;whiteSpace=wrap;html=1;" vertex="1" parent="lZmL2fSjqCGuLQ8A0n4v-2">
          <mxGeometry x="200" y="10" width="90" height="50" as="geometry" />
        </mxCell>
        <mxCell id="lZmL2fSjqCGuLQ8A0n4v-3" value="Collection development/selection committee" style="swimlane;html=1;startSize=20;horizontal=0;" vertex="1" parent="lZmL2fSjqCGuLQ8A0n4v-1">
          <mxGeometry y="330" width="1150" height="320" as="geometry" />
        </mxCell>
      </root>
    </mxGraphModel>
  </diagram>
</mxfile>
